# xmcd CD database file
#
# Track frame offsets:
#	150
#	24957
#	56027
#	93744
#	130517
#	159696
#	190494
#	228836
#	262711
#	293452
#
# Disc length: 4285 seconds
#
# Revision: 0
# Processed by: cddbd v1.5.2PL0 Copyright (c) Steve Scherf et al.
# Submitted via: CDex 1.51
#
DISCID=7b10bb0a
DTITLE=Wayne Shorter - Wayne Shorter-Blue Note TSF
DYEAR=1900
DGENRE=Jazz
TTITLE0=Face of the Deep
TTITLE1=Infant Eyes
TTITLE2=Speak no Evil
TTITLE3=Witch Hunt
TTITLE4=Black Nile
TTITLE5=Oriental Folk Song
TTITLE6=Juju
TTITLE7=Footprints
TTITLE8=Adam's Apple
TTITLE9=Tom Thumb
EXTD=
EXTT0=
EXTT1=
EXTT2=
EXTT3=
EXTT4=
EXTT5=
EXTT6=
EXTT7=
EXTT8=
EXTT9=
PLAYORDER=
